# xmcd CD database file
#
# Track frame offsets:
#	150
#	57317
#	91378
#	116485
#	141390
#
# Disc length: 2290 seconds
#
# Revision: 0
# Processed by: cddbd v1.5.2PL0 Copyright (c) Steve Scherf et al.
# Submitted via: CDex 1.70beta2
#
DISCID=4308f005
DTITLE=Jazz at The Golden Circle - Jazz at The Golden Circle
DYEAR=2009
DGENRE=Jazz
TTITLE0=Dexter Gordon - Chees Cake
TTITLE1=Kenny Dorham - Scandia Skies
TTITLE2=Bill Evance - Time to Remembered
TTITLE3=Ben Webster - My Romance
TTITLE4=Eje Thelin - Israel
EXTD=YEAR: 2009
EXTT0=
EXTT1=
EXTT2=
EXTT3=
EXTT4=
PLAYORDER=
